<svg xmlns="http://www.w3.org/2000/svg" width="20" height="20" viewBox="0 -4 25 25" fill="none">
  <path d="M0 3.5C0 2.70435 0.31607 1.94129 0.87868 1.37868C1.44129 0.81607 2.20435 0.5 3 0.5H21C21.7956 0.5 22.5587 0.81607 23.1213 1.37868C23.6839 1.94129 24 2.70435 24 3.5V6.5C23.2044 6.5 22.4413 6.81607 21.8787 7.37868C21.3161 7.94129 21 8.70435 21 9.5C21 10.2956 21.3161 11.0587 21.8787 11.6213C22.4413 12.1839 23.2044 12.5 24 12.5V15.5C24 16.2956 23.6839 17.0587 23.1213 17.6213C22.5587 18.1839 21.7956 18.5 21 18.5H3C2.20435 18.5 1.44129 18.1839 0.87868 17.6213C0.31607 17.0587 0 16.2956 0 15.5V12.5C0.79565 12.5 1.55871 12.1839 2.12132 11.6213C2.68393 11.0587 3 10.2956 3 9.5C3 8.70435 2.68393 7.94129 2.12132 7.37868C1.55871 6.81607 0.79565 6.5 0 6.5V3.5Z" fill="#25B26B" />
</svg>

